<?xml version="1.0" standalone="no"?><!DOCTYPE svg PUBLIC "-//W3C//DTD SVG 1.1//EN" "http://www.w3.org/Graphics/SVG/1.1/DTD/svg11.dtd"><svg t="1592102642182" class="icon" viewBox="0 0 1024 1024" version="1.1" xmlns="http://www.w3.org/2000/svg" p-id="6593" xmlns:xlink="http://www.w3.org/1999/xlink" width="128" height="128"><defs><style type="text/css"></style></defs><path d="M0.014 213.352h1023.972v639.984H0.014z" fill="#F6BB42" p-id="6594"></path><path d="M0.014 170.666h1023.972v639.984H0.014z" fill="#FFCE54" p-id="6595"></path><path d="M938.678 661.34V320.004c-35.344 0-64-28.654-64-63.998H149.322c0 35.344-28.654 63.998-63.998 63.998V661.34c35.344 0 63.998 28.656 63.998 63.996h725.356c0-35.34 28.656-63.996 64-63.996z" fill="#ED5564" p-id="6596"></path><path d="M874.678 256.006H149.322c0 35.344-28.654 63.998-63.998 63.998V661.34c35.344 0 63.998 28.656 63.998 63.996h725.356c0-35.34 28.656-63.996 64-63.996V320.004c-35.344 0-64-28.654-64-63.998z m21.344 371.552a107.488 107.488 0 0 0-55.092 55.094H183.072a107.494 107.494 0 0 0-55.092-55.094V353.754c24.56-10.75 44.31-30.5 55.092-55.092h657.858c10.782 24.592 30.53 44.342 55.092 55.092v273.804z" fill="#DA4453" p-id="6597"></path><path d="M351.66 565.25l-62.372-189.278h-43.656l84.374 240.056h41.936l85.404-240.056H414.66zM498.25 375.972h40.718v240.054h-40.718zM764.37 395.316c-12.844-12.842-31.782-19.342-56.248-19.342h-105.874v240.054h40.75V522h66.342c23.874 0 42.404-6.468 55.03-19.218 12.844-12.938 19.344-31.032 19.344-53.812-0.002-22.748-6.502-40.81-19.344-53.654z m-31.782 81.466c-6.844 6.188-18.032 9.344-33.28 9.344-0.468 0-0.938-0.032-1.5-0.032h-54.81v-74.248h54.81c16.03 0 27.748 3.218 34.81 9.5 6.968 6.25 10.376 15.282 10.376 27.624 0 12.374-3.406 21.468-10.406 27.812z" fill="#FFCE54" p-id="6598"></path></svg>